<svg height="66" viewBox="0 0 176.837 66" width="176.837" xmlns="http://www.w3.org/2000/svg" xmlns:xlink="http://www.w3.org/1999/xlink"><clipPath id="a"><path d="m0 0h176.837v66h-176.837z"/></clipPath><g clip-path="url(#a)"><g fill="#5e5e5e"><path d="m6.6 23.865c0 1.385.147 5.776-4.066 5.776a5.76 5.76 0 0 1 -2.534-.53v-3.364a2.322 2.322 0 0 0 1.764.943c1.59 0 1.473-1.708 1.473-2.828v-11.488h3.363z" transform="translate(0 12.287)"/><path d="m9.959 19.312-.383-2.563h-.056l-.355 2.563-.707 4.538h2.358zm1.473-6.953 4.066 17h-3.564l-.618-2.86h-3.416l-.618 2.86h-3.334l3.948-17z" transform="translate(3.92 12.272)"/><path d="m13.8 19.641c1.622.058 2.535-.53 2.535-2.27 0-1.206-.472-2.21-1.915-2.21h-.62zm-3.358 9.724v-17h3.508c.705 0 5.774-.442 5.774 5.038 0 3.183-2.063 5.01-5.156 5.01l-.737-.06v7.013z" transform="translate(10.365 12.268)"/><path d="m20.53 19.312-.383-2.563h-.03l-.353 2.563-.707 4.538h2.358zm1.5-6.953 4.1 17h-3.6l-.618-2.86h-3.39l-.618 2.86h-3.325l3.948-17z" transform="translate(14.476 12.272)"/><path d="m24.028 12.359 4.185 10.254.058-.058a10.469 10.469 0 0 1 -.265-2.563v-7.633h3.358v17h-3.183l-4.155-10.254-.058.03.147 1.71.03.705v7.808h-3.328v-17z" transform="translate(20.67 12.272)"/><path d="m32.8 13.8h-3.86v6.011h3.66v1.445h-3.657v8.1h-1.56v-17h5.417z" transform="translate(27.189 12.272)"/><path d="m32.4 20.977c0 3.005.118 7.191 2.535 7.191 2.445 0 2.533-4.185 2.533-7.191s-.118-7.191-2.533-7.191c-2.415-.118-2.535 4.185-2.535 7.191m6.718 0c0 3.183-.235 8.721-4.155 8.721-3.715 0-4.183-4.743-4.183-8.721 0-4.3.558-8.721 4.183-8.721 3.83 0 4.155 4.978 4.155 8.721" transform="translate(30.564 12.17)"/><path d="m42.94 23.968c0 3.123-.235 5.6-3.565 5.6-3.388 0-3.565-2.563-3.565-5.6v-11.609h1.59v11.521c0 2.83.147 4.183 1.973 4.183 1.8 0 1.975-1.355 1.975-4.183v-11.521h1.59z" transform="translate(35.556 12.272)"/><path d="m47.582 29.361h-1.382l-3.83-11.429c-.235-.707-.383-1.473-.59-2.18h-.092c.058 1.09.175 2.18.175 3.3v10.313h-1.382v-17.006h1.383l3.89 11.816c.205.59.353 1.178.53 1.764h.058c-.058-.735-.147-1.5-.147-2.238v-11.312h1.385v16.972z" transform="translate(40.195 12.272)"/><path d="m46.744 27.916h.442c3.033 0 3.418-2.15 3.418-7.041 0-5.833-.62-7.041-3.6-7.041h-.265zm-1.562-15.557h1.708c3.243 0 5.363.413 5.363 8.486 0 6.66-1.09 8.486-5.243 8.486h-1.828z" transform="translate(44.863 12.272)"/><path d="m54.625 24.5-1.125-6.513c-.205-1.148-.295-2.328-.442-3.476h-.092c-.149 1.148-.267 2.328-.442 3.476l-1 6.513zm2.563 4.861h-1.68l-.618-3.508h-3.623l-.618 3.508h-1.682l3.33-17h1.473z" transform="translate(48.621 12.272)"/><path d="m59.586 13.8h-2.563v15.561h-1.56v-15.561h-2.563v-1.441h6.686z" transform="translate(52.526 12.272)"/><path d="m0 0h1.59v17.002h-1.59z" transform="translate(114.06 24.631)"/><path d="m60.551 20.977c0 3.005.118 7.191 2.535 7.191 2.445 0 2.533-4.185 2.533-7.191s-.118-7.191-2.533-7.191c-2.415-.118-2.535 4.185-2.535 7.191m6.718 0c0 3.183-.235 8.721-4.183 8.721-3.715 0-4.183-4.743-4.183-8.721 0-4.3.556-8.721 4.183-8.721 3.83 0 4.183 4.978 4.183 8.721" transform="translate(58.487 12.17)"/><path d="m70.853 29.361h-1.353l-3.83-11.429c-.235-.707-.383-1.473-.59-2.18h-.092c.058 1.09.175 2.18.175 3.3v10.313h-1.381v-17.006h1.383l3.89 11.816c.205.59.353 1.178.53 1.764h.058c-.058-.735-.147-1.5-.147-2.238v-11.312h1.385v16.972z" transform="translate(63.331 12.272)"/><path d="m16.944 32.574a14.382 14.382 0 0 0 4.656-3.624l1.355.767c-1.56 2.18-4.3 3.446-5.6 4.066zm8.9-7.751v2.445h7.364v.943h-16.146v-.943h7.312v-2.445z" transform="translate(16.824 24.648)"/><path d="m32.75 37.579.295-1.415v-.03a16.092 16.092 0 0 1 -6.78-2.18 10.223 10.223 0 0 0 3.27-4.861l-1.439-.53a10.4 10.4 0 0 1 -3.005 4.626 7.872 7.872 0 0 1 -3.091-4.508l-1.18.442a9.842 9.842 0 0 0 3.18 4.891 15.935 15.935 0 0 1 -6.953 2.507l.175 1.032a17.4 17.4 0 0 0 7.928-2.681 15.92 15.92 0 0 0 7.6 2.71" transform="translate(16.928 28.361)"/><path d="m27.378 31.74c-1.885-1.68-5.245-4.066-5.245-4.066l.737-.8a35.429 35.429 0 0 1 5.273 3.448z" transform="translate(21.977 26.687)"/><path d="m11.4 36.125a26.154 26.154 0 0 0 -1-2.563l-1.09.265c.235.678.558 1.8.8 2.623zm-8.925-7.987v.943h3.948v3.153h-3.623v.943h3.655v3.685h-4.305v.938h10.314v-.943h-4.6v-3.679h4.008v-.943h-4.004v-3.153h4.327v-.942h-9.72zm-2.445 12.318h14.556v-15.2h-14.556zm13.141-.943h-11.756v-13.372h11.756z" transform="translate(.03 25.074)"/><path d="m46.561 33.191h-7.43v-1.5h7.43zm0-4.508h-7.43v-1.353h7.43zm-8.811-3.83v1.533h-2.507v.945h2.507v5.835h-2.888v.943h3.388a9.217 9.217 0 0 1 -3.565 3l.237 1.12a10.38 10.38 0 0 0 5.038-4.123h5.863a11.173 11.173 0 0 0 4.923 4.153l.325-1.413a10.159 10.159 0 0 1 -3.743-2.74h3.535v-.943h-2.863v-5.863h2.535v-.945h-2.535v-1.438h-1.409v1.443h-7.43v-1.537h-1.411zm8.811 5.863h-7.43v-1.116h7.43z" transform="translate(34.44 24.648)"/><path d="m35.07 34.934h6.686v-2.415h-3.8v-.941h3.8v-1.566h1.385v1.562h3.859v.945h-3.859v2.415h6.686v.943h-14.757z" transform="translate(34.822 29.8)"/><path d="m46.149 27.543v.915h4.508v2.886h-6.806v.915h6.806v5.1h-2.063a25.768 25.768 0 0 0 -1.385-4.093l-1.266.44a26.021 26.021 0 0 1 1.12 3.653h-3.537v.941h15.647v-.943h-3.8a27.328 27.328 0 0 0 1.383-3.713l-1.533-.383a26.993 26.993 0 0 1 -1.238 4.1h-1.915v-5.1h6.78v-.915h-6.78v-2.89h4.478v-.913z" transform="translate(43.218 27.349)"/><path d="m51.716 26.163a24.511 24.511 0 0 0 7.984 5.273l.325-1.413a20.924 20.924 0 0 1 -7.925-5.245h-1.355a20.257 20.257 0 0 1 -7.485 5.538l.267 1.09a26.187 26.187 0 0 0 8.161-5.273z" transform="translate(42.954 24.603)"/><path d="m28.849 30.707a8.791 8.791 0 0 1 -3.183 2.918l.355 1.8a9.059 9.059 0 0 0 3.479-3.363z" transform="translate(25.485 30.49)"/><path d="m29.379 26.651a16.526 16.526 0 0 0 -3.418-1.473l-.261 1.148a23.448 23.448 0 0 1 3.241 1.74z" transform="translate(25.514 25)"/><path d="m25.711 28.751a23.686 23.686 0 0 1 3.211 1.975l.413-1.473a13.874 13.874 0 0 0 -3.3-1.62z" transform="translate(25.529 27.438)"/><path d="m27.574 36.064.472 1.09c2.533-1.828 3.153-4.1 3.211-8.1h-1.5c.03 3.773-.8 5.923-2.18 7.013" transform="translate(27.379 28.846)"/><path d="m36.035 35.814h-2.063c-.295-.03-.205-.413-.205-.413v-6.335h-1.447v7.1a.887.887 0 0 0 .855.823h2.888z" transform="translate(32.092 28.861)"/><path d="m0 0h1.415v7.751h-1.415z" transform="translate(60.729 57.927)"/><path d="m27.841 31.143.03 1.268a71.474 71.474 0 0 0 9.724-.652 8.2 8.2 0 0 1 .8 1.09l1.325-.678a20.658 20.658 0 0 0 -2.886-3.418l-1 .59v.03a13.81 13.81 0 0 1 1.166 1.415 47.139 47.139 0 0 1 -6.068.353 14.024 14.024 0 0 0 1.885-3.418h6.686v-.943h-4.98v-1.913h-1.411v1.915h-5.126v.943h3.153a15.046 15.046 0 0 1 -1.74 3.388 9.274 9.274 0 0 1 -1.56.03" transform="translate(27.642 24.691)"/><path d="m11.42 30.6a12.331 12.331 0 0 0 .943-1.885 10.009 10.009 0 0 0 .735-3.39v-.058h-4.626v15.5h1.385v-14.588h1.8a11.616 11.616 0 0 1 -1.473 4.508 7.187 7.187 0 0 1 1.59 4.155c0 .678-.094 1.268-.735 1.385h-.825l.147 1.06.735-.03c1.68 0 1.915-1.238 1.915-2.268a7.745 7.745 0 0 0 -1.59-4.39" transform="translate(8.412 25.088)"/><path d="m21.225 29.79h-10.166v.943h4.215v3.653c0 .355.092.707-.442.737l-1.473.03.147 1.148h1.738c1.415 0 1.415-.973 1.415-1.533v-4.035h4.541v-.943z" transform="translate(10.981 29.58)"/><path d="m12.813 28.24a8.179 8.179 0 0 1 1.445 1.09q-.266.4-.618.883a10.292 10.292 0 0 0 -1.5-1.12 9.636 9.636 0 0 0 .678-.853m.825-1.268h1.708a8.9 8.9 0 0 1 -.59 1.562 4.6 4.6 0 0 0 -1.5-.885 7.3 7.3 0 0 1 .383-.678m6.806 0a6.816 6.816 0 0 1 -1.325 2.535 11.3 11.3 0 0 1 -1.268-2.535zm-9.9 2.3.205.943a4.418 4.418 0 0 0 .767-.53 6.252 6.252 0 0 1 1.443 1.325 11.583 11.583 0 0 1 -1.943 1.857l.265.855a8.983 8.983 0 0 0 2.3-1.708v.913h6.011v-.973h-5.958a14.35 14.35 0 0 0 3.033-4.978h.03a10.86 10.86 0 0 0 5.3 6.746l.355-1.383a8.569 8.569 0 0 1 -2.593-2.063 6.27 6.27 0 0 0 2.268-4.243h-4.39a8.192 8.192 0 0 1 -.205-.973l-1.032.205s.03.207.118.737h-2.36a4.7 4.7 0 0 0 .295-.737l-1.3-.323c-.06.03-.973 2.971-2.623 4.331" transform="translate(10.465 24.766)"/><path d="m13.239 30.722a19.632 19.632 0 0 1 -2.772 3.621l.5.943a11.7 11.7 0 0 0 3.508-3.976z" transform="translate(10.393 30.505)"/><path d="m14.534 31.253s1.415 2.063 2.623 4.1l1.12-1.032a29.493 29.493 0 0 0 -2.77-3.6z" transform="translate(14.431 30.504)"/></g><path d="m79.881 18.12a18.926 18.926 0 0 0 4.3 11.874c2.24 2.86 6.866 7.778 14.351 7.838 7.749.06 10.341-5.068 8.661-9.016-1.473-3.448-7.308-6.481-13.7-5.833a21.707 21.707 0 0 1 6.686-2.888c.147-.03.147-.147 0-.147a34.647 34.647 0 0 0 -15.7 5.893c-.118.058-.058.177.03.147 1.325-.205 9.046-1.443 13.406.943 5.01 2.71 1.766 9.134-4.773 6.806a18.432 18.432 0 0 1 -9.516-7.571c-2.415-4.008-1.68-10.991-.442-13.879 2-4.626 5.628-4.861 7.071-3.446 1.385 1.355.943 4.006-1.678 7.513-2.3 3.063-6.4 8.249-8.4 11.2s-3.448 5.572-2.77 9.516c.825 4.829 5.391 6.806 6.778.707a12.532 12.532 0 0 0 -1.473-8.841 23.745 23.745 0 0 0 -3.8-5.508c-2.563-2.918-5.391-4.213-7.868-2.682a3.343 3.343 0 0 0 .356 5.654c2.946 1.975 6.629 1.445 8.281.943.118-.03.118-.177-.03-.147a10.469 10.469 0 0 1 -6.425-1.5c-2.386-1.885-.556-5.572 4.215-1.975 3.353 2.532 6.359 7.479 4.359 12.963-.943 2.563-2.653 1.943-3.213-.855a8.191 8.191 0 0 1 .652-5.1c1.148-2.68 3.418-4.506 7.129-7.129 4.923-3.448 10.226-7.691 12.436-13.259 1.913-4.801-.177-10.341-4.922-10.341-8.251.03-14 8.663-14 18.12" fill="#523f81" transform="translate(69.152)"/></g></svg>